<svg width="336" height="221" viewBox="0 0 336 221" fill="none" xmlns="http://www.w3.org/2000/svg">
<path d="M335.147 102.723C325.075 72.325 314.964 41.9413 304.812 11.5722C302.286 4.01829 295.519 0.726854 287.967 3.21119C279.061 6.1369 270.162 9.07733 261.273 12.0325C251.752 15.1852 249.232 18.918 249.986 28.9184C243.143 31.5919 236.375 34.0573 228.64 32.5377C215.821 30.0155 202.933 27.8717 190.044 25.7468C185.372 24.9775 180.612 24.6938 175.889 24.2398C165.362 23.2372 156.671 27.2916 149.302 34.36C145.061 38.4333 140.51 40.823 134.445 40.1042C131.813 39.8712 129.163 39.9538 126.551 40.3501C115.657 41.6932 106.674 37.1407 98.0269 31.4343C99.4069 22.9598 97.3179 18.8297 89.5823 14.8384C81.2516 10.5381 72.9167 6.2525 64.5776 1.98163C56.7597 -2.02232 49.828 0.0836958 45.745 7.91503C31.0714 36.0498 16.4441 64.214 1.86335 92.4077C-2.00446 99.8796 0.249178 106.841 7.6936 110.744C16.5497 115.391 25.4563 119.943 34.3757 124.483C40.2502 127.472 45.1436 126.766 50.0939 122.421C50.67 121.917 51.7398 121.141 52.088 121.337C54.0377 122.472 56.2469 123.538 57.608 125.234C60.4932 128.964 63.183 132.841 65.6664 136.848C65.9267 137.293 66.094 137.785 66.1582 138.295C66.2224 138.806 66.1821 139.324 66.0399 139.818C62.7165 148.728 67.1984 158.085 76.3583 160.954C78.1485 161.415 79.9613 161.783 81.7897 162.057C82.3657 175.362 87.0565 180.047 100.559 180.911C101.547 191.056 108.617 197.67 120.063 196.743C124.513 210.546 132.799 214.165 146.587 208.175C149.942 211.069 153.322 214.077 156.797 216.965C158.71 218.59 160.963 219.771 163.391 220.421C165.819 221.072 168.362 221.175 170.836 220.725C173.309 220.275 175.651 219.281 177.691 217.817C179.732 216.353 181.419 214.455 182.631 212.261C183.733 210.294 184.315 208.043 185.233 205.678C190.823 209.304 196.773 210.199 202.888 207.318C208.984 204.449 211.991 199.234 212.89 192.588C219.132 194.732 224.861 194.505 230.159 190.987C235.426 187.5 237.787 182.266 238.313 176.15C248.314 178.382 255.854 175.727 260.253 168.634C264.982 161.017 263.748 153.564 256.183 144.566C256.746 144.125 257.278 143.646 257.867 143.248C265.058 138.406 271.958 133.273 277.181 126.192C278.2 124.811 280.048 124.036 281.473 123.008C286.663 129.534 291.107 131.281 297.418 129.257C307.25 126.104 317.049 122.863 326.816 119.534C334.457 116.904 337.685 110.372 335.147 102.723ZM45.7766 115.069C44.903 116.734 43.004 117.863 41.6873 119.136C39.8831 118.443 38.769 118.127 37.7562 117.61C28.9379 113.121 20.1325 108.606 11.3399 104.066C7.59233 102.124 6.76933 99.5517 8.75071 95.7243C23.3861 67.4697 38.0492 39.2256 52.7399 10.9921C54.5061 7.59976 57.1711 6.78006 60.6655 8.55188C69.6671 13.1296 78.6456 17.7599 87.6009 22.4427C90.8737 24.1578 91.6776 26.825 89.9811 30.0975C75.2885 58.4467 60.5537 86.7706 45.7766 115.069ZM82.3721 154.037C78.9917 154.522 75.1365 152.511 73.4337 149.365C71.7815 146.313 72.1613 143.854 74.7567 140.77C76.7764 138.362 78.7828 135.94 80.8148 133.544C83.1824 130.745 85.917 129.982 89.2404 131.154C92.7284 132.384 95.2036 135.537 95.2605 138.834C95.3238 142.498 85.9928 153.507 82.3721 154.037ZM103.363 170.828C102.148 172.26 99.8183 172.745 98.0015 173.672C94.4882 173.104 92.0637 171.591 90.5065 168.848C88.9809 166.168 88.8986 163.218 90.766 160.803C96.3494 153.57 102.047 146.42 107.94 139.44C110.694 136.174 115.385 136.155 118.784 138.841C122.145 141.495 123.196 146.098 120.594 149.516C115.055 156.773 109.288 163.873 103.363 170.828ZM122.956 186.188C121.901 187.516 120.442 188.466 118.798 188.897C117.154 189.328 115.414 189.216 113.84 188.578C110.536 187.311 108.447 184.278 108.029 180.583C108.89 178.849 109.491 176.919 110.662 175.425C114.473 170.551 118.467 165.822 122.43 161.067C125.937 156.855 130.811 156.2 134.603 159.378C138.262 162.442 138.547 167.316 135.211 171.421C131.172 176.377 127.087 181.299 122.956 186.188ZM145.498 196.876C144.434 198.169 143.358 199.455 142.269 200.735C139.744 203.686 137.281 204.398 133.901 203.162C132.145 202.488 130.639 201.294 129.584 199.742C128.53 198.19 127.977 196.354 128.001 194.48C128.371 193.383 128.861 192.33 129.463 191.34C130.701 189.65 132.037 188.033 133.464 186.497C136.616 182.928 140.699 182.802 144.542 186.119C148.118 189.196 148.486 193.257 145.498 196.876ZM252.6 165.954C248.625 170.431 242.39 170.607 237.382 166.301C223.968 154.768 210.571 143.223 197.191 131.665C196.335 130.887 195.414 130.182 194.438 129.559C192.627 128.487 190.785 128.468 189.253 130.095C187.658 131.785 187.645 133.721 188.911 135.568C189.61 136.484 190.423 137.308 191.329 138.021C203.04 148.135 214.802 158.192 226.469 168.356C232.673 173.767 231.122 182.972 223.614 185.677C219.537 187.153 216.03 185.967 212.827 183.193C201.464 173.325 190.067 163.493 178.637 153.696C177.681 152.87 176.763 151.994 175.744 151.25C173.655 149.705 171.503 149.781 169.806 151.729C168.129 153.659 168.211 155.802 170.136 157.631C171.661 159.081 173.282 160.424 174.877 161.799C183.657 169.353 192.488 176.844 201.205 184.467C206.737 189.309 205.978 196.983 199.799 200.243C196.299 202.09 192.513 201.567 188.993 198.559C179.96 190.823 170.971 183.029 161.944 175.286C160.754 174.258 159.558 172.871 158.158 172.55C156.525 172.2 154.82 172.467 153.373 173.3C151.601 174.492 151.676 176.591 152.911 178.357C153.605 179.282 154.408 180.12 155.304 180.854C161.267 186.024 167.262 191.163 173.231 196.327C177.757 200.249 178.409 205.811 174.864 209.966C171.262 214.178 165.749 214.411 161.128 210.508C158.146 207.999 155.215 205.432 152.272 202.885C152.004 202.614 151.752 202.328 151.518 202.027C159.02 192.513 154.633 180.167 141.529 175.986C145.264 170.753 146.562 165.122 143.783 159.132C141.016 153.148 135.965 150.291 129.267 149.592C130.464 141.489 128.267 134.831 120.639 131.041C114.087 127.787 107.959 129.206 102.313 133.929C99.2489 127.85 94.7671 123.796 87.7974 123.096C80.5366 122.377 75.9978 126.552 71.9591 132.441C69.9524 129.786 68.1228 127.642 66.5909 125.309C62.1154 118.487 62.1598 118.455 55.1838 113.758C68.1609 88.7568 81.157 63.7243 94.4759 38.0676C105.769 46.706 118.347 49.7326 132.236 47.6266C132.249 47.9481 132.261 48.276 132.274 48.5976C129.115 51.4603 125.975 54.3292 122.804 57.1793C117.594 61.8705 115.638 67.6904 115.834 74.6516C116.138 85.7681 116.195 96.9034 115.948 108.014C115.796 114.987 119.297 119.445 126.317 120.038C134.819 120.763 140.909 116.52 145.713 110.239C150.972 103.326 154.108 95.0431 154.74 86.3923C155.044 82.7919 156.006 79.595 158.906 77.2179C161.773 74.8723 162.906 74.8723 165.755 77.3188C183.081 92.1996 200.403 107.089 217.72 121.986C228.805 131.539 239.868 141.111 250.91 150.701C256.101 155.203 256.753 161.288 252.6 165.954ZM268.534 124.591C262.849 129.395 256.943 133.948 250.992 138.425C250.423 138.853 248.606 138.355 247.859 137.718C232.008 124.187 216.199 110.609 200.432 96.9854C190.456 88.4037 180.471 79.8346 170.477 71.2782C165.078 66.65 159.773 66.5807 154.24 71.1269C149.663 74.8849 147.612 79.8158 147.093 85.6609C146.327 94.2425 143.365 102.023 137.199 108.272C134.559 110.952 131.394 112.806 127.355 112.478C124.754 112.263 123.557 111.305 123.602 108.316C123.773 96.9917 123.741 85.663 123.507 74.33C123.399 69.5694 124.621 65.6664 128.261 62.5578C138.256 54.0077 148.201 45.4007 158.26 36.92C163.463 32.5314 169.673 31.0118 176.32 31.9513C188.937 33.7294 201.515 35.7535 214.099 37.7207C219.404 38.5468 224.671 39.6502 229.995 40.3438C235.034 40.9996 240.066 40.9302 244.909 38.8557C247.321 37.8279 249.891 37.1722 252.771 36.2201C261.646 62.892 270.414 89.2613 278.82 114.546C275.035 118.279 271.983 121.677 268.534 124.591ZM323.69 112.56C314.409 115.668 305.104 118.726 295.805 121.797C295.007 122.062 294.184 122.239 293.627 122.39C290.031 122.264 288.696 120.076 287.771 117.27C282.77 102.124 277.738 86.985 272.673 71.852C267.837 57.3117 263.003 42.7693 258.171 28.2248C256.55 23.357 257.576 21.3014 262.488 19.6746C271.477 16.6859 280.474 13.7097 289.48 10.7462C294.184 9.20133 296.304 10.2291 297.881 14.9519C307.838 44.827 317.773 74.7062 327.684 104.59C329.127 108.934 328.026 111.11 323.69 112.56Z" fill="#FF8C8C"/>
</svg>
