<svg width="58" height="59" viewBox="0 0 58 59" fill="none" xmlns="http://www.w3.org/2000/svg">
<mask id="mask0_334_570" style="mask-type:luminance" maskUnits="userSpaceOnUse" x="21" y="0" width="37" height="59">
<path d="M56.7964 0.0195373C56.0946 0.0195373 55.1598 0.00626535 55.1598 0.00626535H43.1382L38.7532 4.13011C36.2144 6.44477 34.3941 9.44016 33.509 12.7598C32.6239 16.0794 32.7113 19.5834 33.7607 22.8548V22.8571C33.7607 22.8571 33.7623 22.8641 33.767 22.8805C33.8636 23.176 33.9673 23.4692 34.0773 23.7569C34.0586 23.7522 34.0406 23.7476 34.0211 23.7421C34.4235 24.9732 35.3092 27.2375 36.8101 28.9131L36.8125 28.9162C37.048 29.0534 37.2803 29.1992 37.5072 29.3513C38.6001 30.0791 39.5858 30.9562 40.4358 31.9571C40.4358 31.9586 40.4358 31.9586 40.4398 31.9602C42.5835 34.4856 43.7717 37.6841 43.7968 40.9966C43.8219 44.3091 42.6823 47.5252 40.5771 50.0828C38.4719 52.6405 35.535 54.3772 32.2794 54.9895C29.0239 55.6017 25.6567 55.0507 22.7662 53.4325L21.4766 57.0192C24.1981 58.4184 27.233 59.0966 30.2913 58.9889C33.3497 58.8812 36.3293 57.9913 38.9457 56.4041C41.5621 54.8168 43.7279 52.5854 45.2363 49.9227C46.7447 47.2601 47.5453 44.2552 47.5616 41.195C47.5952 38.9785 47.1957 36.7768 46.3857 34.7134C44.6625 30.4485 40.8825 27.5128 40.035 26.5164C38.5658 24.7881 37.5343 22.7315 37.0276 20.5205C36.5209 18.3095 36.5539 16.0089 37.1239 13.8134C37.6938 11.6178 38.7839 9.59167 40.3021 7.90627C41.8202 6.22086 43.7218 4.92569 45.8461 4.13023H53.4233C54.5186 4.13011 55.5691 3.69494 56.3436 2.92042C57.1181 2.1459 57.5533 1.09546 57.5534 0.00012207C57.3017 0.0221305 57.0489 0.0285364 56.7964 0.0195373Z" fill="white"/>
</mask>
<g mask="url(#mask0_334_570)">
<path d="M30.8972 -13.041L3.45312 49.7512L55.4018 72.456L82.8458 9.66375L30.8972 -13.041Z" fill="url(#paint0_linear_334_570)"/>
</g>
<mask id="mask1_334_570" style="mask-type:luminance" maskUnits="userSpaceOnUse" x="11" y="23" width="26" height="35">
<path d="M17.7369 27.7685L11.9336 34.4849V43.4991C11.9851 43.8905 12.0521 44.278 12.1285 44.6601C12.6626 47.2886 13.7799 49.7638 15.3983 51.9029C17.0166 54.0419 19.0945 55.7904 21.4787 57.0192L22.7684 53.4325C21.1389 52.5206 19.7064 51.2948 18.5536 49.8258C17.4008 48.3569 16.5506 46.674 16.0522 44.8745C15.5538 43.075 15.417 41.1946 15.6497 39.3419C15.8825 37.4892 16.4802 35.701 17.4082 34.0807C18.3363 32.4604 19.5763 31.0401 21.0567 29.902C22.537 28.7638 24.2282 27.9304 26.0326 27.4499C27.8369 26.9694 29.7187 26.8513 31.569 27.1024C33.4193 27.3536 35.2014 27.969 36.8124 28.9131C35.3115 27.2375 34.4258 24.9733 34.0235 23.7421C33.8481 23.6983 33.6687 23.6563 33.4893 23.6181C30.7225 23.0157 27.8522 23.0777 25.114 23.7992C22.3758 24.5206 19.8477 25.8809 17.7369 27.7685Z" fill="white"/>
</mask>
<g mask="url(#mask1_334_570)">
<path d="M49.2663 23.208H11.9336V60.8107H49.2663V23.208Z" fill="url(#paint1_linear_334_570)"/>
</g>
<mask id="mask2_334_570" style="mask-type:luminance" maskUnits="userSpaceOnUse" x="0" y="0" width="44" height="35">
<path d="M16.0612 29.7076C16.0737 29.6936 16.0862 29.6788 16.0986 29.6637L16.0612 29.7076ZM16.0986 29.6637L17.5543 27.9789L16.0986 29.6637ZM2.05287 0.00625885C1.50758 0.0086564 0.985446 0.226948 0.600716 0.613374C0.215986 0.999799 0 1.52289 0 2.06818C0 2.61347 0.215986 3.13656 0.600716 3.52299C0.985446 3.90941 1.50758 4.1277 2.05287 4.1301H10.2016C10.429 4.13016 10.6542 4.17502 10.8642 4.26213C11.0743 4.34923 11.2652 4.47687 11.4259 4.63775C11.5867 4.79864 11.7141 4.98961 11.8011 5.19977C11.888 5.40993 11.9327 5.63516 11.9325 5.86259V34.4849L16.0612 29.7076L16.0579 5.86259C16.0579 5.63506 16.1027 5.40976 16.1898 5.19955C16.2768 4.98934 16.4044 4.79833 16.5653 4.63745C16.7262 4.47657 16.9172 4.34896 17.1274 4.26191C17.3376 4.17485 17.5629 4.13006 17.7904 4.1301H38.7544L43.1395 0.00625885L43.1457 0L2.05287 0.00625885Z" fill="white"/>
</mask>
<g mask="url(#mask2_334_570)">
<path d="M-8.48828 35.7873L-5.92595 -9.89016L44.3121 -10.4905L41.7498 35.1874L-8.48828 35.7873Z" fill="url(#paint2_linear_334_570)"/>
</g>
<defs>
<linearGradient id="paint0_linear_334_570" x1="59.4512" y1="-7.55889" x2="30.6569" y2="58.3226" gradientUnits="userSpaceOnUse">
<stop stop-color="#FFB800"/>
<stop offset="0.3979" stop-color="#FEB600"/>
<stop offset="0.5412" stop-color="#FDAF00"/>
<stop offset="0.6434" stop-color="#F9A401"/>
<stop offset="0.726" stop-color="#F49302"/>
<stop offset="0.7968" stop-color="#EE7D03"/>
<stop offset="0.8595" stop-color="#E76104"/>
<stop offset="0.9161" stop-color="#DD4106"/>
<stop offset="0.9665" stop-color="#D31D08"/>
<stop offset="1" stop-color="#CB0009"/>
</linearGradient>
<linearGradient id="paint1_linear_334_570" x1="11.9251" y1="42.016" x2="49.2579" y2="42.016" gradientUnits="userSpaceOnUse">
<stop stop-color="#CB0009"/>
<stop offset="0.3901" stop-color="#C9010B"/>
<stop offset="0.5306" stop-color="#C20511"/>
<stop offset="0.6308" stop-color="#B70B1C"/>
<stop offset="0.7119" stop-color="#A6142C"/>
<stop offset="0.7813" stop-color="#902040"/>
<stop offset="0.8427" stop-color="#742F5A"/>
<stop offset="0.8983" stop-color="#544078"/>
<stop offset="0.9491" stop-color="#2F549B"/>
<stop offset="0.9946" stop-color="#056AC1"/>
<stop offset="1" stop-color="#006DC6"/>
</linearGradient>
<linearGradient id="paint2_linear_334_570" x1="16.8703" y1="30.9147" x2="16.4378" y2="-5.28827" gradientUnits="userSpaceOnUse">
<stop stop-color="#CB0009"/>
<stop offset="0.0494" stop-color="#B60B1D"/>
<stop offset="0.1744" stop-color="#862549"/>
<stop offset="0.3032" stop-color="#5D3B70"/>
<stop offset="0.4337" stop-color="#3B4D8F"/>
<stop offset="0.5666" stop-color="#215BA7"/>
<stop offset="0.7028" stop-color="#0F65B8"/>
<stop offset="0.8444" stop-color="#046BC3"/>
<stop offset="1" stop-color="#006DC6"/>
</linearGradient>
</defs>
</svg>
