<svg width="24" height="22" viewBox="0 0 24 22" fill="none" xmlns="http://www.w3.org/2000/svg">
<path d="M21.75 10.9995H18V7.99951C18 6.34482 19.3453 4.99951 21 4.99951H21.375C21.9984 4.99951 22.5 4.49795 22.5 3.87451V1.62451C22.5 1.00107 21.9984 0.499512 21.375 0.499512H21C16.8563 0.499512 13.5 3.85576 13.5 7.99951V19.2495C13.5 20.4917 14.5078 21.4995 15.75 21.4995H21.75C22.9922 21.4995 24 20.4917 24 19.2495V13.2495C24 12.0073 22.9922 10.9995 21.75 10.9995ZM8.25 10.9995H4.5V7.99951C4.5 6.34482 5.84531 4.99951 7.5 4.99951H7.875C8.49844 4.99951 9 4.49795 9 3.87451V1.62451C9 1.00107 8.49844 0.499512 7.875 0.499512H7.5C3.35625 0.499512 0 3.85576 0 7.99951V19.2495C0 20.4917 1.00781 21.4995 2.25 21.4995H8.25C9.49219 21.4995 10.5 20.4917 10.5 19.2495V13.2495C10.5 12.0073 9.49219 10.9995 8.25 10.9995Z" fill="black"/>
</svg>
