<svg width="148" height="88" viewBox="0 0 148 88" fill="none" xmlns="http://www.w3.org/2000/svg">
<path d="M22.412 50.0981C27.8091 52.0898 32.5537 53.8407 37.0834 56.0783C38.2888 56.7708 39.3373 57.7062 40.1622 58.8254C40.9851 59.9421 41.5678 61.2173 41.8729 62.5701C42.4136 66.4658 42.316 70.413 42.2048 74.9093C42.1682 76.3921 42.1301 77.9346 42.1129 79.5547C39.3368 77.9773 36.6076 76.4305 33.9173 74.9057C23.5167 69.0107 13.6947 63.4438 3.97291 57.7061C2.63218 56.5999 1.7647 55.0221 1.55007 53.2955L1.5484 53.2821L1.54638 53.2687C0.707857 47.7457 0.722353 42.9515 2.38641 38.977C4.02927 35.0532 7.34684 31.776 13.4583 29.4122L13.0975 28.4795L13.4583 29.4122C18.6134 27.4182 23.4968 24.7723 28.3679 21.9145C30.2163 20.8301 32.0542 19.7206 33.9047 18.6036C36.4876 17.0444 39.0951 15.4703 41.7905 13.9286V35.1917L15.1083 45.493L12.6921 46.4258L15.1082 47.3587C17.6844 48.3535 20.1077 49.2478 22.412 50.0981Z" stroke="#FFB0B0" stroke-width="2"/>
<path d="M107.043 79.4006C107.033 77.721 107.01 76.1119 106.987 74.5572C106.914 69.4962 106.849 65.0121 107.269 60.55L106.274 60.4562L107.269 60.5499C107.329 59.9145 107.819 59.0198 108.676 58.105C109.507 57.2171 110.537 56.4683 111.407 56.0856C116.214 53.9713 121.141 52.1623 126.745 50.1045C129.035 49.2637 131.438 48.3814 133.992 47.4197L136.469 46.4868L133.994 45.5487C131.957 44.777 130.104 44.0739 128.373 43.4171C124.927 42.1094 121.965 40.9854 119.001 39.8702C115.818 38.6726 113.503 37.8005 111.781 36.9418C110.072 36.0894 109.061 35.3032 108.41 34.3388C107.756 33.3708 107.386 32.1079 107.198 30.1414C107.009 28.165 107.011 25.6064 107.015 22.0981C107.018 20.2835 107.017 18.4683 107.016 16.2561C107.016 15.4601 107.016 14.6128 107.016 13.6956L145.813 35.5341L146.202 57.2143L107.043 79.4006Z" stroke="#FFB0B0" stroke-width="2"/>
<path d="M57.2711 86.9993C58.5362 82.0931 59.7933 77.2082 61.0458 72.3415C66.9375 49.4487 72.726 26.9568 78.7517 4.52817L78.7517 4.52813C78.8121 4.30314 78.9832 3.99897 79.3143 3.64126C79.6383 3.29134 80.0718 2.93751 80.5745 2.60995C81.5923 1.94682 82.7755 1.46685 83.6707 1.32349L83.6707 1.32349C85.5515 1.02219 87.4933 0.975896 89.6542 1.0093C90.4548 1.02167 91.2968 1.04548 92.1764 1.07035C93.2456 1.10058 94.3704 1.13239 95.5439 1.14714L73.2847 87L57.2711 86.9993Z" stroke="#FFB0B0" stroke-width="2"/>
</svg>
