<svg width="109" height="114" viewBox="0 0 109 114" fill="none" xmlns="http://www.w3.org/2000/svg">
<path d="M77.2567 65.7972L77.2592 65.7709C77.504 63.2519 78.4878 60.8613 80.0868 58.8997C82.1851 56.2693 84.4254 53.7294 86.6453 51.2125C87.3439 50.4206 88.0404 49.6309 88.7298 48.8414C91.624 45.5273 94.4113 42.1972 96.8053 38.62L96.8054 38.6199C104.043 27.8066 108.004 15.7547 107.532 2.09617C106.704 2.18177 105.899 2.25564 105.112 2.32788C102.818 2.53848 100.675 2.73521 98.5463 3.16835C79.6585 7.01678 65.08 17.761 53.0057 32.4095C52.1008 33.6462 50.9055 34.6414 49.5249 35.3073C48.1438 35.9734 46.6199 36.2895 45.0881 36.2275C38.3114 36.3186 31.5177 36.726 24.7507 37.33L24.7353 37.3314L24.7199 37.3323C22.8035 37.4438 20.9735 38.1653 19.4973 39.391C10.4395 48.5677 5.80758 60.1533 1.72991 72.382C2.93066 72.7389 3.70448 72.6728 4.27126 72.4196C5.00497 72.0919 5.65728 71.3403 6.41151 69.9542C7.15906 68.5766 8.13028 66.8198 9.2229 65.3654C9.77022 64.6368 10.3714 63.9519 11.0177 63.42C11.6582 62.8928 12.4069 62.4631 13.2439 62.3533L13.2448 62.3532C17.8724 61.75 22.6614 62.0479 27.2165 62.3313C28.9475 62.439 30.6447 62.5446 32.2865 62.5978L33.6579 62.6423L33.1956 63.9342C33.1421 64.0838 33.0896 64.2305 33.0382 64.3741C32.4155 66.1132 31.9466 67.423 31.6245 68.4661C31.273 69.6041 31.1283 70.3291 31.1265 70.8706C31.1235 71.7991 31.5114 72.3269 33.0636 73.9446C33.0636 73.9446 33.0636 73.9446 33.0637 73.9446L32.3421 74.637L77.2567 65.7972ZM77.2567 65.7972L77.2555 65.8235M77.2567 65.7972L77.2555 65.8235M77.2555 65.8235C77.1003 69.3405 77.1148 72.86 77.1406 76.3553C77.1425 76.611 77.1444 76.8665 77.1464 77.1219C77.171 80.3644 77.1955 83.5845 77.0962 86.7973C77.0633 87.7415 76.91 88.7937 76.6194 89.7643C76.326 90.7443 75.912 91.5763 75.3998 92.1416C66.7161 101.699 55.4032 107.036 43.3847 111.764C42.9148 110.543 42.8874 109.676 43.0966 109.061C43.3394 108.346 43.9989 107.694 45.3945 107.181L45.3966 107.18M77.2555 65.8235L45.3966 107.18M45.3966 107.18C48.5095 106.028 50.7361 104.32 52.0488 101.98M45.3966 107.18L52.0488 101.98M52.0488 101.98C53.3553 99.6517 53.68 96.8336 53.262 93.6048L52.0488 101.98ZM67.7647 37.1546C68.3637 38.5757 69.2366 39.8648 70.3333 40.9488C71.4287 42.1028 72.7477 43.0209 74.2103 43.6476C75.6782 44.2766 77.2594 44.5984 78.8565 44.5932C80.4535 44.5879 82.0326 44.2555 83.4963 43.6168C84.9557 42.98 86.2697 42.052 87.3579 40.8897C88.4604 39.7727 89.3313 38.4489 89.9205 36.9941C90.5116 35.5349 90.8076 33.973 90.7912 32.3986C90.7749 30.8244 90.4469 29.2688 89.8256 27.8221C89.2043 26.3753 88.3023 25.0661 87.1719 23.9702C86.0415 22.8742 84.7051 22.0135 83.24 21.4373C81.7748 20.8611 80.2099 20.5811 78.6358 20.6134C77.0618 20.6458 75.5097 20.9897 74.0694 21.6257C72.6326 22.2601 71.3355 23.1721 70.2526 24.3098C69.1651 25.4058 68.3039 26.7055 67.7187 28.1345C67.1321 29.567 66.8342 31.1012 66.8421 32.6491C66.85 34.1969 67.1634 35.7281 67.7647 37.1546Z" stroke="#FFB0B0" stroke-width="2"/>
</svg>
