<svg width="83" height="98" viewBox="0 0 83 98" fill="none" xmlns="http://www.w3.org/2000/svg">
<path d="M24.1516 95.8802L24.1435 95.8809L24.1355 95.8818C19.4627 96.3765 14.7421 96.1665 10.1316 95.2592C7.68671 94.7672 5.48075 93.4613 3.87381 91.5541C2.26637 89.6464 1.35326 87.2499 1.28362 84.7563L1.28315 84.7393L1.2821 84.7224C0.906041 78.6434 0.986456 72.557 1.0693 66.2865C1.10086 63.8982 1.13276 61.4832 1.13994 59.0317H10.9187C10.9189 60.9564 10.9197 62.8741 10.9205 64.7868C10.9227 70.19 10.9249 75.5528 10.9141 80.9162C10.91 82.9694 11.2201 84.9406 12.2702 86.4539C13.3612 88.0262 15.1252 88.9313 17.6256 89.0862C20.1404 89.2422 22.2511 88.7263 23.73 87.239C25.1904 85.7702 25.8391 83.5471 25.8923 80.735C25.9909 75.5266 25.9691 70.3093 25.947 65.0248C25.9388 63.074 25.9306 61.1139 25.9284 59.1418H35.42C35.4307 61.594 35.4784 64.0302 35.5258 66.4537C35.6501 72.8082 35.7727 79.0757 35.2234 85.3149C34.9554 88.3593 33.7453 90.8439 31.8555 92.6394C29.9617 94.4386 27.3324 95.5952 24.1516 95.8802Z" stroke="#FFB0B0" stroke-width="2"/>
<path d="M44.0972 59.2748C48.5488 57.9528 51.8397 58.4053 54.3973 60.0356C57.241 61.8483 59.3878 65.2438 61.1255 69.9461L62.0507 72.4497L62.9983 69.9545C64.7366 65.3775 66.8068 61.9143 69.587 60.0443C72.0784 58.3686 75.3073 57.8674 79.7831 59.3195C79.1158 60.3742 78.4474 61.4398 77.7749 62.5118C75.5301 66.0905 73.2402 69.7411 70.7959 73.2987C70.0118 74.4398 69.5342 75.5424 69.5443 76.73C69.5543 77.9146 70.0483 79.0094 70.8306 80.1376C73.5023 83.9911 76.0264 87.9355 78.537 91.8592C79.3056 93.0602 80.0729 94.2593 80.8427 95.4532C76.1142 96.8904 72.696 96.2659 70.0214 94.3302C67.039 92.1717 64.7937 88.2571 62.8359 83.0507L61.9341 80.6525L60.9729 83.0275C58.9191 88.1024 56.7015 92.0539 53.747 94.2647C51.1081 96.2394 47.7424 96.9203 42.9945 95.4363C46.6173 89.8991 50.2818 84.2975 54.1367 78.4046L54.9621 77.143L55.3184 76.5982L54.9646 76.0519L44.0972 59.2748Z" stroke="#FFB0B0" stroke-width="2"/>
<path d="M37.8774 1.13965H48.0458C48.0498 3.52695 48.0675 5.8807 48.0849 8.21041C48.13 14.2234 48.1739 20.0763 47.9798 25.9332L47.9795 25.9425L47.9793 25.9519C47.9331 29.1616 46.7099 32.2426 44.542 34.6101C42.3741 36.9775 39.4126 38.4665 36.2193 38.7945L36.2193 38.7945L36.2075 38.7958C31.5271 39.333 26.7959 39.2424 22.1395 38.5265L22.1393 38.5265C16.7137 37.6931 12.3298 31.8329 12.1544 25.0474C12.0091 19.4105 12.0421 13.7784 12.0759 7.99601C12.089 5.76574 12.1022 3.51311 12.1053 1.22925H22.3867C22.3864 3.1589 22.3854 5.08403 22.3843 7.0058C22.3813 12.3981 22.3784 17.764 22.3926 23.1289C22.3981 25.2012 22.6751 27.2596 23.6968 28.8805C24.7614 30.5695 26.5323 31.6295 29.1584 31.8791M29.1584 31.8791C29.1584 31.8791 29.1584 31.8791 29.1584 31.8791L29.253 30.8835L29.1584 31.8791Z" stroke="#FFB0B0" stroke-width="2"/>
<path d="M59.1719 1H68.741V38.4324H59.1719V1Z" stroke="#FFB0B0" stroke-width="2"/>
</svg>
