<svg width="165" height="42" viewBox="0 0 165 42" fill="none" xmlns="http://www.w3.org/2000/svg">
<path d="M106.105 38.4154L106.097 38.4161L106.089 38.4169C101.416 38.9116 96.6953 38.7017 92.0847 37.7943C89.6398 37.3024 87.4339 35.9964 85.8269 34.0893C84.2195 32.1816 83.3064 29.7851 83.2367 27.2914L83.2363 27.2745L83.2352 27.2576C82.8592 21.1786 82.9396 15.0922 83.0224 8.82164C83.054 6.43336 83.0859 4.01837 83.0931 1.56689H92.8718C92.8721 3.49152 92.8728 5.40926 92.8736 7.32193C92.8759 12.7252 92.8781 18.088 92.8673 23.4514C92.8632 25.5045 93.1732 27.4758 94.2233 28.989C95.3143 30.5613 97.0783 31.4665 99.5787 31.6214C102.094 31.7773 104.204 31.2615 105.683 29.7741C107.144 28.3054 107.792 26.0822 107.845 23.2702C107.944 18.0618 107.922 12.8444 107.9 7.56C107.892 5.60912 107.884 3.6491 107.882 1.677H117.373C117.384 4.12911 117.432 6.56533 117.479 8.9889C117.603 15.3433 117.726 21.6108 117.177 27.85C116.909 30.8945 115.698 33.379 113.809 35.1745C111.915 36.9738 109.286 38.1304 106.105 38.4154Z" stroke="#C0FFAE" stroke-width="2"/>
<path d="M126.05 1.80991C130.502 0.487948 133.793 0.940482 136.35 2.57078C139.194 4.38347 141.341 7.779 143.079 12.4812L144.004 14.9848L144.951 12.4897C146.69 7.91262 148.76 4.44943 151.54 2.57946C154.032 0.903722 157.26 0.402523 161.736 1.85463C161.069 2.90934 160.401 3.97492 159.728 5.04694C157.483 8.62569 155.193 12.2762 152.749 15.8339C151.965 16.975 151.487 18.0775 151.497 19.2651C151.507 20.4498 152.001 21.5446 152.784 22.6727C155.455 26.5262 157.979 30.4707 160.49 34.3943C161.259 35.5953 162.026 36.7944 162.796 37.9883C158.067 39.4255 154.649 38.801 151.975 36.8654C148.992 34.7069 146.747 30.7923 144.789 25.5859L143.887 23.1877L142.926 25.5627C140.872 30.6376 138.655 34.589 135.7 36.7998C133.061 38.7746 129.696 39.4555 124.948 37.9715C128.57 32.4343 132.235 26.8326 136.09 20.9398L136.915 19.6781L137.272 19.1334L136.918 18.587L126.05 1.80991Z" stroke="#C0FFAE" stroke-width="2"/>
<path d="M26.8306 2.13965H36.9989C37.0029 4.52695 37.0206 6.8807 37.0381 9.21041C37.0832 15.2234 37.1271 21.0763 36.9329 26.9332L36.9326 26.9425L36.9324 26.9519C36.8862 30.1616 35.663 33.2426 33.4951 35.6101C31.3272 37.9775 28.3657 39.4665 25.1724 39.7945L25.1724 39.7945L25.1606 39.7958C20.4802 40.333 15.749 40.2424 11.0926 39.5265L11.0925 39.5265C5.66684 38.6931 1.28292 32.8329 1.10755 26.0474C0.9622 20.4105 0.995194 14.7784 1.02907 8.99601C1.04213 6.76574 1.05533 4.51311 1.05847 2.22925H11.3399C11.3396 4.1589 11.3385 6.08403 11.3374 8.0058C11.3345 13.3981 11.3315 18.764 11.3457 24.1289C11.3512 26.2012 11.6283 28.2596 12.6499 29.8805C13.7145 31.5695 15.4854 32.6295 18.1115 32.8791M18.1115 32.8791C18.1115 32.8791 18.1115 32.8791 18.1115 32.8791L18.2061 31.8835L18.1115 32.8791Z" stroke="#C0FFAE" stroke-width="2"/>
<path d="M48.125 2H57.6941V39.4324H48.125V2Z" stroke="#C0FFAE" stroke-width="2"/>
</svg>
