<svg width="63" height="49" viewBox="0 0 63 49" fill="none" xmlns="http://www.w3.org/2000/svg">
<path d="M38.7556 0.0179824C31.5153 0.0160105 24.275 0.035382 17.0347 0.000110619C15.536 -0.0073306 14.3667 0.357509 14.3555 2.04756C14.3439 3.81377 15.6226 4.0429 17.0679 4.02545C20.1616 3.98794 23.2561 4.01371 26.3502 4.01364C37.1797 4.01364 48.0092 4.01354 58.8389 4.01334C59.3959 4.01334 59.9535 3.99199 60.5094 4.01387C61.881 4.06793 62.9345 3.51576 62.9571 2.09545C62.981 0.598762 61.9572 0.00321318 60.4764 0.00842204C53.2363 0.033871 45.9959 0.0199172 38.7556 0.0179824Z" fill="#C0FFAE"/>
<path d="M61.2063 18.3774C60.7131 18.3268 60.2167 18.3126 59.7213 18.3349C45.6506 18.3352 31.5799 18.3371 17.5093 18.3405C17.0138 18.3184 16.5175 18.3281 16.0232 18.3695C14.8346 18.5242 14.2708 19.2795 14.3657 20.4296C14.486 21.8891 15.4292 22.3574 16.8062 22.3531C24.0585 22.3299 31.3108 22.3423 38.5631 22.34C45.1335 22.3377 51.7039 22.3368 58.2744 22.3372C59.2041 22.3372 60.1361 22.3688 61.0631 22.3158C61.314 22.3184 61.5628 22.2706 61.795 22.1754C62.0271 22.0802 62.2377 21.9394 62.4146 21.7615C62.5914 21.5835 62.7308 21.3719 62.8246 21.1392C62.9183 20.9065 62.9645 20.6573 62.9604 20.4065C63.0226 19.2757 62.3516 18.5485 61.2063 18.3774Z" fill="#C0FFAE"/>
<path d="M38.5627 40.5709C41.1043 40.571 43.6458 40.5711 46.1873 40.5712C50.9604 40.5722 55.7338 40.5466 60.5064 40.592C61.9121 40.6054 62.9095 40.0828 62.9553 38.678C63.0051 37.1518 61.933 36.545 60.4882 36.5553C60.3021 36.5566 60.1161 36.5519 59.9301 36.5519C45.6727 36.551 31.4154 36.5466 17.1582 36.5386C15.7096 36.5366 14.507 36.804 14.3447 38.4996C14.21 39.9073 15.1513 40.5671 17.1766 40.5686C24.3054 40.5743 31.4341 40.575 38.5627 40.5709Z" fill="#C0FFAE"/>
<path d="M62.1089 26.8189C61.4669 26.3493 60.6865 26.4694 59.9472 26.4691C52.819 26.4671 45.6908 26.4671 38.5626 26.4691C37.7568 26.4705 36.9509 26.4709 36.1451 26.4704C29.6367 26.4709 23.1283 26.4693 16.6199 26.4657C15.3131 26.4631 14.3839 26.9662 14.3451 28.336C14.3046 29.7629 15.1835 30.4521 16.5883 30.4803C16.8981 30.4865 17.2081 30.4866 17.518 30.4866C31.5885 30.4873 45.659 30.4868 59.7296 30.4851C60.2858 30.5208 60.8442 30.4912 61.3936 30.3969C61.7934 30.315 62.1588 30.113 62.4408 29.8179C62.7227 29.5227 62.9079 29.1485 62.9714 28.7453C63.035 28.3749 62.9868 27.9939 62.8333 27.6509C62.6797 27.3078 62.4276 27.0182 62.1089 26.8189Z" fill="#C0FFAE"/>
<path d="M60.1757 44.6797C45.7563 44.6973 31.3369 44.7026 16.9175 44.6954C16.4339 44.6956 15.9346 44.6013 15.4732 44.8866C14.5926 45.431 14.1184 46.1817 14.3806 47.2198C14.6973 48.4743 15.6595 48.7192 16.8176 48.7164C24.0581 48.6978 31.2988 48.7071 38.5394 48.7071V48.7134C45.7181 48.7134 52.8969 48.713 60.0756 48.7123C62.006 48.7115 63.1299 47.9756 62.9883 46.6785C62.8098 45.0424 61.642 44.6779 60.1757 44.6797Z" fill="#C0FFAE"/>
<path d="M60.2799 8.14796C45.8431 8.17483 31.4063 8.17716 16.9694 8.15496C15.4642 8.15295 14.3112 8.54317 14.3526 10.2561C14.3936 11.9424 15.6364 12.0859 16.9987 12.0808C24.124 12.0543 31.2496 12.0684 38.3751 12.0685C45.6865 12.0685 52.9979 12.0528 60.3092 12.0824C61.6982 12.088 62.9415 11.8209 62.9595 10.225C62.978 8.58906 61.7968 8.14513 60.2799 8.14796Z" fill="#C0FFAE"/>
<path d="M4.09173 38.6489C-0.00466204 38.6483 -0.00465512 38.6484 0.000330493 42.6683C0.00542773 46.7613 0.00542634 46.7613 4.06089 46.7612C8.10925 46.7612 8.10924 46.7612 8.10823 42.7094C8.10723 38.6496 8.10723 38.6496 4.09173 38.6489Z" fill="#C0FFAE"/>
<path d="M3.96994 10.1018C8.09547 10.1018 8.09545 10.1018 8.0969 6.09746C8.09835 2.12363 8.09838 2.12365 4.14267 2.12354C0.00788135 2.12354 0.0078476 2.12352 0.00412699 6.12689C0.000369176 10.102 0.000465159 10.102 3.96994 10.1018Z" fill="#C0FFAE"/>
<path d="M4.06788 28.369C8.10321 28.3672 8.10323 28.3672 8.10404 24.6637C8.1049 20.3934 8.10487 20.3934 3.88693 20.3936C0.00365894 20.3936 0.00365002 20.3936 0.00391046 24.2792C0.00428252 28.3707 0.00426462 28.3707 4.06788 28.369Z" fill="#C0FFAE"/>
</svg>
