<svg width="277" height="34" viewBox="0 0 277 34" fill="none" xmlns="http://www.w3.org/2000/svg">
<path d="M19.981 19.7275L19.9809 19.7275L19.9697 19.7338C19.9697 19.7338 19.9512 19.7435 19.8555 19.7754C19.8478 19.778 19.8389 19.7809 19.829 19.7842C19.7462 19.8115 19.5927 19.862 19.4459 19.9326L18.4721 20.4013L19.0147 21.3358L25.5134 32.5285H18.7508L12.5503 21.5187L12.2635 21.0094H11.679H7.58515H6.58515V22.0094V32.5254H1V1.74964H14.7492V1.74973L14.7628 1.74954C16.5764 1.72486 18.3675 2.15311 19.9738 2.99547L19.9781 2.99772C21.4638 3.76757 22.7116 4.92772 23.5874 6.35349C24.4679 7.8066 24.9204 9.47871 24.893 11.1777L24.8927 11.1933L24.893 11.2089C24.9197 12.9735 24.465 14.712 23.5776 16.2374C22.7164 17.7046 21.4734 18.9107 19.981 19.7275ZM7.58515 6.39801H6.5852L6.58515 7.39796L6.58467 15.9229L6.58461 16.9229H7.58467H14.0338C14.9585 16.9423 15.8711 16.7096 16.6738 16.2498L16.6738 16.2499L16.6839 16.2439C17.4617 15.7861 18.0868 15.1088 18.4809 14.297L18.4821 14.2946C18.8849 13.4591 19.0878 12.5411 19.0735 11.6133C19.0902 10.6618 18.8505 9.72335 18.3801 8.89631L18.3801 8.89626L18.373 8.88414C17.8934 8.06794 17.1798 7.41447 16.3241 7.00873L16.3168 7.00524L16.3094 7.00187C15.3751 6.57738 14.3566 6.37089 13.3309 6.39801H7.58515Z" stroke="#C0FFAE" stroke-width="2"/>
<path d="M40.6007 19.0863H39.6007V20.0863V26.739V27.739H40.6007H55.1927V32.5283H33.875V1.74854H54.7244V6.54172H40.6007H39.6007V7.54172V13.6287V14.6287H40.6007H52.6174V19.0863H40.6007Z" stroke="#C0FFAE" stroke-width="2"/>
<path d="M78.8028 17.8185L78.8028 17.8185L78.8061 17.8095L84.6537 1.75049H90.6184L78.2191 32.5263H72.924L60.6137 1.75049H66.7334L72.8101 17.8202L72.8101 17.8202L72.8127 17.827C73.185 18.7906 73.5033 19.6294 73.7679 20.344L73.7684 20.3455C74.0308 21.0511 74.2602 21.7077 74.4566 22.316L74.4577 22.3193C74.5876 22.7167 74.7024 23.1225 74.8237 23.551C74.8341 23.588 74.8447 23.6252 74.8552 23.6625L75.8511 27.1777L76.7842 23.6453L76.8164 23.5234C77.0598 22.7175 77.3342 21.8797 77.64 21.0063C77.9489 20.1239 78.3361 19.063 78.8028 17.8185Z" stroke="#C0FFAE" stroke-width="2"/>
<path d="M102.271 7.44807V6.44807H101.271H96.7461V1.74854H113.799V6.44807H109.231H108.231V7.44807V26.8326V27.8326H109.231H113.799V32.5283H96.7461V27.8326H101.271H102.271V26.8326V7.44807Z" stroke="#C0FFAE" stroke-width="2"/>
<path d="M140.761 8.95121L144.305 5.54298C143.697 4.74619 142.985 4.0336 142.185 3.42504C141.089 2.61508 139.854 2.01228 138.542 1.64649C136.825 1.18535 135.052 0.968912 133.275 1.00359L133.263 1.00382L133.251 1.00378C131.767 0.998058 130.292 1.22612 128.879 1.67968L128.872 1.68197L128.872 1.68194C127.554 2.09404 126.32 2.73693 125.227 3.58059C124.221 4.35737 123.387 5.33533 122.78 6.45208L140.761 8.95121ZM140.761 8.95121C140.268 8.4407 139.729 7.97669 139.148 7.56557L139.148 7.56554L139.141 7.56028C138.313 6.98499 137.406 6.53241 136.449 6.21647L136.448 6.21626C135.496 5.90286 134.501 5.74316 133.499 5.74313C132.575 5.72518 131.655 5.85977 130.775 6.1415C130.016 6.38237 129.331 6.81191 128.783 7.38962L128.772 7.40112L128.762 7.41297C128.227 8.01445 127.936 8.79427 127.947 9.59908C127.933 10.3262 128.181 11.0344 128.644 11.5954L128.652 11.6045L128.66 11.6135C129.095 12.1153 129.619 12.5325 130.205 12.8443C130.847 13.1959 131.525 13.4747 132.228 13.6757C132.969 13.892 133.722 14.064 134.484 14.1906C136.01 14.4859 137.505 14.9219 138.951 15.493L138.953 15.4936C140.157 15.9669 141.286 16.6126 142.305 17.4105C143.169 18.0921 143.872 18.9565 144.362 19.9417C144.862 21.0062 145.108 22.1719 145.082 23.3477L145.082 23.3747L145.083 23.4016C145.142 25.2409 144.623 27.0522 143.598 28.5807C142.564 30.027 141.143 31.1529 139.499 31.8295L140.761 8.95121ZM121.893 10.0235L121.893 10.0356C121.876 11.1782 122.076 12.3136 122.481 13.382C122.869 14.3593 123.464 15.2412 124.226 15.9668C125.117 16.8034 126.15 17.4755 127.276 17.952L127.28 17.9537C128.741 18.5793 130.259 19.0604 131.813 19.3902C132.489 19.5201 133.151 19.6737 133.799 19.8512C134.444 20.0269 135.077 20.2439 135.695 20.5009C136.266 20.7324 136.812 21.022 137.323 21.3652L137.328 21.3682C137.822 21.7036 138.243 22.1356 138.566 22.6383L138.571 22.6449L138.575 22.6517C138.906 23.1868 139.081 23.8052 139.076 24.4355C139.095 25.2554 138.807 26.0527 138.268 26.6709L138.253 26.6881L138.237 26.7046C137.68 27.2872 136.979 27.7114 136.204 27.9334C135.367 28.1868 134.496 28.3108 133.622 28.3014C131.789 28.3005 129.978 27.9011 128.315 27.1307L128.293 27.1204L128.271 27.109C126.609 26.2382 125.146 25.0422 123.964 23.5967L120.521 27.5098C121.378 28.4998 122.344 29.3912 123.401 30.1671C124.702 31.1084 126.156 31.8171 127.699 32.2618C129.501 32.7726 131.367 33.0202 133.24 32.9971L133.256 32.9969L133.271 32.9972C135.405 33.0375 137.524 32.6401 139.498 31.8298L121.893 10.0235ZM121.893 10.0235L121.893 10.0114M121.893 10.0235L121.893 10.0114M121.893 10.0114C121.881 8.76892 122.186 7.54401 122.779 6.45233L121.893 10.0114Z" stroke="#C0FFAE" stroke-width="2"/>
<path d="M157.951 7.44807V6.44807H156.951H152.426V1.74854H169.479V6.44807H164.911H163.911V7.44807V26.8326V27.8326H164.911H169.479V32.5283H152.426V27.8326H156.951H157.951V26.8326V7.44807Z" stroke="#C0FFAE" stroke-width="2"/>
<path d="M192.235 1.00464L192.247 1.00478L192.259 1.00464C194.452 0.978126 196.628 1.38357 198.664 2.19773C200.553 2.95951 202.271 4.09334 203.714 5.53186C205.149 6.97148 206.276 8.68878 207.025 10.5788C207.823 12.6197 208.221 14.7955 208.196 16.9871L208.195 16.9977L208.196 17.0083C208.217 19.1947 207.819 21.365 207.024 23.4018C206.28 25.2991 205.153 27.0229 203.714 28.4657C202.272 29.9067 200.554 31.0422 198.664 31.8042C196.642 32.6139 194.481 33.0193 192.303 32.9973L192.292 32.9972L192.281 32.9973C190.073 33.0246 187.882 32.619 185.829 31.8037C183.939 31.0415 182.222 29.9064 180.781 28.466C179.34 27.0237 178.205 25.3064 177.443 23.4162C176.631 21.3793 176.226 19.203 176.251 17.0105L176.251 16.999L176.251 16.9874C176.226 14.7961 176.631 12.621 177.442 10.5854C178.206 8.69454 179.341 6.97616 180.78 5.53192C182.224 4.09357 183.941 2.95975 185.831 2.19774C187.867 1.38373 190.043 0.97829 192.235 1.00464ZM201.379 21.1423L201.379 21.1399C201.867 19.8146 202.11 18.4118 202.096 16.9998C202.11 15.5889 201.867 14.1871 201.379 12.8628L201.378 12.8601C200.918 11.6212 200.222 10.4836 199.328 9.5103L199.325 9.50799C198.443 8.55374 197.371 7.7944 196.179 7.27883L196.174 7.27706C194.934 6.74745 193.597 6.481 192.248 6.49442C190.898 6.481 189.56 6.74741 188.319 7.277L188.319 7.27698L188.314 7.27924C187.12 7.79682 186.044 8.55302 185.152 9.50132C184.24 10.4706 183.537 11.618 183.089 12.8716L183.088 12.8737C182.618 14.1981 182.384 15.5949 182.397 17.0003C182.385 18.4126 182.618 19.8163 183.087 21.1486C183.528 22.4097 184.234 23.5617 185.157 24.5268C186.052 25.4638 187.127 26.2102 188.317 26.721L188.319 26.7217C189.56 27.2519 190.898 27.5193 192.248 27.5068C193.597 27.5193 194.934 27.2519 196.175 26.7216L196.176 26.721C197.372 26.2079 198.446 25.4474 199.326 24.4898C200.222 23.5182 200.919 22.3811 201.379 21.1423Z" stroke="#C0FFAE" stroke-width="2"/>
<path d="M238.314 15.4023L238.314 15.4049C238.359 16.3284 238.422 17.2352 238.499 18.1303C238.576 19.0321 238.662 19.9461 238.755 20.8795L238.314 15.4023ZM238.314 15.4023C238.267 14.4795 238.235 13.4776 238.22 12.3961C238.205 11.3096 238.197 10.128 238.197 8.85119V1.74854M238.314 15.4023L238.197 1.74854M238.197 1.74854H243.923V32.5243H238.215L223.321 12.4552L221.145 9.52277L221.523 13.1548L221.571 13.6117L221.571 13.6118L221.572 13.6225C221.68 14.6634 221.776 15.584 221.852 16.3865C221.927 17.1912 221.984 17.9087 222.012 18.5411C222.042 19.189 222.063 19.83 222.08 20.4658C222.097 21.0947 222.105 21.7947 222.105 22.569V32.5243H216.379V1.74854H221.988L237.041 22.2543L239.259 25.2761L238.84 21.551C238.828 21.4365 238.811 21.3181 238.797 21.2144L238.793 21.1826C238.777 21.0657 238.763 20.9675 238.755 20.8796L238.197 1.74854Z" stroke="#C0FFAE" stroke-width="2"/>
<path d="M269.727 15.4936L269.725 15.4929C268.279 14.9219 266.784 14.4859 265.258 14.1906C264.496 14.064 263.743 13.892 263.002 13.6756C262.299 13.4747 261.621 13.1958 260.98 12.8442C260.393 12.5326 259.869 12.1155 259.434 11.6135L259.426 11.6044L259.418 11.5951C258.955 11.0341 258.708 10.326 258.721 9.59906C258.71 8.79454 259 8.01448 259.536 7.41266L259.546 7.40103L259.557 7.38973C260.105 6.81159 260.79 6.38221 261.549 6.14149C262.429 5.85977 263.349 5.72519 264.273 5.74313C265.275 5.74317 266.27 5.90286 267.222 6.21627L267.223 6.21647C268.18 6.53241 269.087 6.98499 269.915 7.56028L269.922 7.56546L269.922 7.5655C270.502 7.97657 271.042 8.44058 271.535 8.95114L275.079 5.54288C274.471 4.74609 273.758 4.03349 272.959 3.42493C271.863 2.615 270.628 2.0123 269.316 1.6465C267.599 1.18532 265.826 0.968893 264.049 1.0036L264.037 1.00383L264.026 1.00378C262.542 0.998062 261.066 1.22614 259.653 1.67969L259.645 1.68199L259.645 1.68196C258.328 2.09395 257.094 2.73682 256.001 3.58052L256.001 3.58066C254.995 4.35737 254.161 5.33526 253.554 6.45208L269.727 15.4936ZM269.727 15.4936C270.931 15.967 272.061 16.6127 273.079 17.4106C273.944 18.0915 274.647 18.9554 275.138 19.9402C275.636 21.0052 275.882 22.1711 275.856 23.347L275.855 23.3742M269.727 15.4936L275.855 23.3742M252.668 10.0235L252.667 10.0357C252.651 11.1783 252.85 12.3137 253.255 13.3821C253.643 14.3594 254.238 15.2411 255 15.9667C255.891 16.8033 256.924 17.4754 258.05 17.9519L258.054 17.9536C259.514 18.5792 261.032 19.0604 262.587 19.3902C263.263 19.5201 263.925 19.6738 264.573 19.8514C265.218 20.0269 265.851 20.2439 266.468 20.5009C267.039 20.7323 267.585 21.0218 268.097 21.3652L268.102 21.3681C268.596 21.7034 269.018 22.1356 269.34 22.6385L269.345 22.6451L269.349 22.6517C269.681 23.1874 269.854 23.8058 269.85 24.4354C269.869 25.2552 269.58 26.0527 269.041 26.6709L269.026 26.6881L269.011 26.7046C268.454 27.2873 267.752 27.7113 266.977 27.9333C266.14 28.1866 265.27 28.3108 264.395 28.3014C262.562 28.3006 260.751 27.9011 259.088 27.1307L259.066 27.1204L259.044 27.109C257.383 26.2382 255.919 25.0421 254.738 23.5966L251.294 27.5098C252.151 28.4998 253.117 29.3913 254.174 30.1672C255.475 31.1086 256.93 31.8174 258.474 32.262C260.275 32.7726 262.141 33.0202 264.013 32.9971L264.029 32.9969L264.045 32.9972C266.179 33.0375 268.298 32.6401 270.273 31.8296L252.668 10.0235ZM252.668 10.0235L252.667 10.0112M252.668 10.0235L252.667 10.0112M252.667 10.0112C252.655 8.76876 252.96 7.54371 253.554 6.45212L252.667 10.0112ZM275.855 23.3742L275.856 23.4015M275.855 23.3742L275.856 23.4015M275.856 23.4015C275.915 25.2408 275.396 27.0522 274.372 28.5808M275.856 23.4015L274.372 28.5808M274.372 28.5808C273.338 30.0271 271.917 31.153 270.273 31.8295L274.372 28.5808Z" stroke="#C0FFAE" stroke-width="2"/>
</svg>
