<svg width="99" height="59" viewBox="0 0 99 59" fill="none" xmlns="http://www.w3.org/2000/svg">
<path d="M14.9299 33.9043C18.536 35.2351 21.6897 36.3989 24.7074 37.8887C25.4723 38.3298 26.1377 38.9243 26.6616 39.6352C27.1837 40.3436 27.554 41.152 27.7494 42.0096C28.1059 44.5892 28.0415 47.1906 27.9674 50.1845C27.9468 51.0153 27.9255 51.8764 27.9122 52.7756C26.2171 51.8128 24.5481 50.8668 22.9008 49.9332C15.9363 45.9858 9.36173 42.2594 2.85384 38.4189C2.03096 37.7316 1.49874 36.7571 1.36628 35.6915L1.36461 35.6781L1.36259 35.6647C0.803385 31.9815 0.823483 28.8402 1.90396 26.2596C2.96324 23.7296 5.10803 21.5871 9.14205 20.0268L9.14206 20.0268C12.6232 18.6803 15.9153 16.8958 19.1861 14.9769C20.4332 14.2453 21.6683 13.4996 22.9099 12.7501C24.4802 11.8022 26.0608 10.848 27.6891 9.9079V23.3684L10.0107 30.1935L7.59452 31.1263L10.0107 32.0593C11.7505 32.7311 13.3819 33.3331 14.9299 33.9043Z" stroke="#C0FFAE" stroke-width="2"/>
<path d="M72.0789 10.8986C72.0788 10.5321 72.0786 10.1493 72.0785 9.74621L97.4346 24.0188L97.6883 38.1697L72.0929 52.6715C72.0849 51.7375 72.0719 50.8373 72.0592 49.9641C72.0102 46.5796 71.967 43.5999 72.2469 40.6271L71.2513 40.5333L72.2469 40.627C72.2766 40.3109 72.5444 39.7781 73.1025 39.1822C73.6354 38.6132 74.2905 38.1402 74.8261 37.9046C78.039 36.4915 81.3277 35.2839 85.0802 33.906C86.6171 33.3417 88.2319 32.7487 89.9512 32.1014L92.429 31.1684L89.9531 30.2304C88.5881 29.7132 87.346 29.2418 86.1857 28.8015C83.8749 27.9246 81.8885 27.1708 79.9007 26.4229C77.7601 25.6175 76.2269 25.0394 75.0911 24.4731C73.9681 23.913 73.3477 23.4175 72.9566 22.8384C72.5631 22.2557 72.3233 21.4727 72.1992 20.1772C72.0741 18.8718 72.0752 17.1752 72.0783 14.8164C72.0799 13.5995 72.0794 12.382 72.0789 10.8986Z" stroke="#C0FFAE" stroke-width="2"/>
<path d="M53.1166 3.12144L53.1166 3.12139C53.1382 3.04096 53.2157 2.88305 53.4174 2.66518C53.6119 2.45509 53.88 2.23467 54.2004 2.02596C54.8533 1.60052 55.6036 1.29999 56.1484 1.21274L56.1484 1.21273C57.3808 1.01531 58.6599 0.98389 60.1028 1.00619C60.6306 1.01435 61.1917 1.03019 61.7801 1.0468C62.3719 1.06351 62.9914 1.081 63.6325 1.09223L48.8779 58L38.8218 57.9995C39.6343 54.8482 40.4419 51.71 41.2467 48.583C45.1967 33.2346 49.0771 18.1569 53.1166 3.12144Z" stroke="#C0FFAE" stroke-width="2"/>
</svg>
