<svg width="70" height="72" viewBox="0 0 70 72" fill="none" xmlns="http://www.w3.org/2000/svg">
<path d="M32.9928 51.8913C33.0054 52.4968 33.0132 53.0844 33.0209 53.6575C33.0487 55.7413 33.0739 57.6328 33.3146 59.4927M32.9928 51.8913L49.9149 41.6905C49.8092 44.0826 49.8275 46.4803 49.8457 48.8781C49.8615 50.9478 49.8772 53.0175 49.8133 55.0836C49.7679 56.3862 49.3923 57.9919 48.5639 58.9055C42.7716 65.2806 35.1992 68.7497 27.2996 71.8303C26.1971 69.5652 26.7332 68.2081 28.7015 67.4844C32.4767 66.0869 33.827 63.4508 33.3146 59.4927M32.9928 51.8913C33.1926 51.7421 33.394 51.5835 33.5972 51.4154L32.9597 50.645L31.9602 50.6782C31.9681 50.916 31.9749 51.152 31.9808 51.3862C27.2985 54.5925 24.4662 51.5064 21.6584 48.4472C21.3009 48.0577 20.9438 47.6685 20.5833 47.2929M32.9928 51.8913L34.3063 59.3643M33.3146 59.4927L34.3063 59.3644C34.3063 59.3644 34.3063 59.3643 34.3063 59.3643M33.3146 59.4927L34.3063 59.3643M20.5833 47.2929L21.3048 46.6005C21.3048 46.6005 21.3048 46.6005 21.3048 46.6005C20.2945 45.5476 20.1664 45.3127 20.1678 44.8879C20.1687 44.5982 20.2473 44.1777 20.4698 43.4571C20.6731 42.7988 20.97 41.9697 21.3692 40.8545C21.4017 40.7639 21.4348 40.6714 21.4686 40.577L21.9308 39.2851L20.5594 39.2406C19.5331 39.2073 18.4629 39.1408 17.3654 39.0725C14.4441 38.8907 11.3296 38.697 8.33605 39.0872L8.33517 39.0873C7.70817 39.1696 7.1679 39.4879 6.73041 39.848C6.28722 40.2128 5.88362 40.6748 5.52458 41.1527C4.80854 42.1059 4.17664 43.2503 3.70002 44.1287C3.22527 45.0011 2.8566 45.3885 2.50264 45.5466C2.29241 45.6405 1.9866 45.6958 1.49244 45.5973C4.06361 37.9349 6.99584 30.7481 12.6215 25.0422C13.503 24.3153 14.5932 23.8874 15.7347 23.821L15.7501 23.8201L15.7655 23.8187C20.0786 23.4337 24.4063 23.1742 28.7214 23.1159C29.756 23.1561 30.7848 22.9419 31.7175 22.492C32.6497 22.0424 33.4572 21.3712 34.0696 20.5373C41.7453 11.2276 50.9897 4.42539 62.9506 1.98835C64.2912 1.71553 65.6282 1.59293 67.0815 1.45966C67.4685 1.42416 67.8638 1.38791 68.2697 1.34786C68.4818 9.83194 65.984 17.3326 61.4661 24.0822L61.466 24.0822C59.95 26.3475 58.182 28.4607 56.3351 30.5756C55.8973 31.077 55.454 31.5795 55.0088 32.0843C53.5897 33.6932 52.1505 35.3247 50.8043 37.0123C49.7385 38.3204 49.0827 39.9143 48.9195 41.5938L48.917 41.6201L48.9158 41.6464C48.8162 43.9037 48.8256 46.1608 48.8421 48.3933C48.8433 48.5564 48.8445 48.7192 48.8457 48.8819C48.8615 50.9549 48.8771 53.0053 48.8139 55.0506C48.7937 55.6262 48.6999 56.2669 48.5243 56.8536C48.3455 57.4505 48.1015 57.9267 47.8231 58.2338C42.4186 64.1817 35.3937 67.5543 27.8568 70.5371C27.6972 69.9991 27.7152 69.6383 27.7958 69.4011C27.9017 69.0895 28.2072 68.7316 29.0465 68.423L29.0486 68.4223C31.0944 67.6649 32.5967 66.5266 33.488 64.9381C34.3732 63.3606 34.5795 61.4744 34.3063 59.3643M20.5833 47.2929C18.8017 45.4363 18.7438 45.2404 20.1736 41.2283L20.5833 47.2929ZM42.8805 23.4872C43.2809 24.437 43.864 25.2987 44.5963 26.0237C45.3292 26.7946 46.2111 27.4081 47.1889 27.827C48.172 28.2483 49.231 28.4638 50.3006 28.4603C51.3702 28.4567 52.4277 28.2341 53.408 27.8064C54.384 27.3805 55.2629 26.7602 55.991 25.9834C56.7272 25.2366 57.3088 24.352 57.7025 23.38C58.0981 22.4035 58.2961 21.3583 58.2852 20.3048C58.2742 19.2514 58.0547 18.2104 57.639 17.2422C57.2232 16.2741 56.6196 15.398 55.8632 14.6647C55.1067 13.9313 54.2124 13.3553 53.232 12.9697C52.2515 12.5841 51.2043 12.3967 50.151 12.4184C49.0977 12.44 48.0591 12.6702 47.0952 13.0958C46.135 13.5198 45.2679 14.1292 44.5437 14.8892C43.8168 15.6225 43.2411 16.4918 42.8497 17.4475C42.4569 18.4066 42.2575 19.4339 42.2628 20.4704C42.268 21.5068 42.4779 22.532 42.8805 23.4872Z" stroke="#C0FFAE" stroke-width="2"/>
</svg>
